<?xml version="1.0" encoding="UTF-8"?>
<!DOCTYPE svg PUBLIC "-//W3C//DTD SVG 1.1//EN" "http://www.w3.org/Graphics/SVG/1.1/DTD/svg11.dtd">
<!-- Creator: CorelDRAW 2019 (64-Bit) -->
<svg xmlns="http://www.w3.org/2000/svg" xml:space="preserve" width="36.0688mm" height="43.3492mm" version="1.1" style="shape-rendering:geometricPrecision; text-rendering:geometricPrecision; image-rendering:optimizeQuality; fill-rule:evenodd; clip-rule:evenodd"
viewBox="0 0 3606.88 4334.92"
 xmlns:xlink="http://www.w3.org/1999/xlink"
 xmlns:xodm="http://www.corel.com/coreldraw/odm/2003">
 <defs>
  <style type="text/css">
   <![CDATA[
    .fil4 {fill:none}
    .fil0 {fill:black;fill-rule:nonzero}
    .fil3 {fill:#6832A1;fill-rule:nonzero}
    .fil1 {fill:#8F4ADD;fill-rule:nonzero}
    .fil2 {fill:#A761FA;fill-rule:nonzero}
   ]]>
  </style>
 </defs>
 <g id="OBJECTS">
  <metadata id="CorelCorpID_0Corel-Layer"/>
  <g id="_1471166221040">
   <path class="fil0" d="M3583.7 4180.63c11.65,29.13 17.48,50.97 17.48,65.51 0,26.2 -9.49,48.8 -28.43,67.75 -18.94,18.94 -41.49,28.37 -67.7,28.37l-550.4 0c-49.52,0 -88.11,-10.94 -115.78,-32.76 -27.65,-21.82 -45.86,-47.3 -54.59,-76.46l-122.31 -362.55 -1161.94 0 -122.34 362.55c-8.73,29.16 -26.94,54.64 -54.58,76.46 -27.65,21.82 -66.24,32.76 -115.78,32.76l-550.4 0c-26.21,0 -48.76,-9.43 -67.7,-28.37 -18.92,-18.95 -28.43,-41.55 -28.43,-67.75 0,-14.54 5.83,-36.38 17.5,-65.51l366.66 -1059.63c130.31,33.4 271.59,50.12 423.86,50.12 1047.13,0 1366.44,-441.36 1366.44,-1442.28l848.44 2451.79z"/>
   <path class="fil1" d="M815.85 1219.99c-8.77,70.3 -13.16,183.08 -13.16,338.32 0,181.6 4.39,314.88 13.16,399.83 11.73,149.37 61.53,271.66 149.4,366.87 53.34,57.77 123.96,98.04 211.84,120.73l-233.38 674.43c-102,-26.37 -197.3,-63.08 -286.03,-109.76 -202.09,-106.91 -358.8,-250.43 -470.12,-430.56 -111.29,-180.16 -172.82,-380.06 -184.52,-599.75 -5.87,-140.6 -8.8,-256.3 -8.8,-347.1 0,-108.37 2.93,-253.38 8.8,-434.97 8.78,-219.69 68.84,-419.59 180.14,-599.75 111.29,-180.13 268.73,-323.65 472.31,-430.56 203.58,-106.93 441.58,-160.39 713.97,-160.39 260.69,0 491.38,48.34 692.01,145.01 200.65,96.65 357.36,218.2 470.12,364.67 112.78,146.45 173.55,288.51 182.35,426.18 2.92,26.37 -5.88,49.06 -26.37,68.1 -20.5,19.04 -43.93,28.57 -70.3,28.57l-584.35 0c-38.09,0 -68.1,-9.53 -90.09,-28.57 -21.96,-19.04 -50.52,-49.07 -85.67,-90.07 -52.73,-64.44 -114.96,-115.7 -186.72,-153.78 -71.76,-38.07 -172.08,-57.11 -300.98,-57.11 -330.99,0 -515.51,169.9 -553.61,509.66zm619.52 479.32l0 -299.17c0,-32.22 11.72,-60.05 35.15,-83.48 23.42,-23.45 51.26,-35.15 83.48,-35.15l103.75 0c-20.4,6.91 -38.4,17.1 -54,30.55 -32.03,27.72 -55.31,61.92 -69.92,102.69l-98.46 284.56zm1075.39 -417.8l106.51 0c32.22,0 60.06,11.7 83.48,35.15 23.43,23.43 35.15,51.26 35.15,83.48l0 307.19 -101.25 -292.58c-14.55,-40.77 -37.81,-74.97 -69.87,-102.69 -15.59,-13.45 -33.59,-23.64 -54.02,-30.55z"/>
   <path class="fil2" d="M1176.4 2460.91c56.9,14.69 121.02,22.05 192.38,22.05 166.97,0 300.98,-38.8 402.01,-116.44 101.06,-77.61 151.59,-199.9 151.59,-366.86l-369.06 0c-32.22,0 -60.06,-11.7 -83.48,-35.15 -23.43,-23.43 -35.15,-51.26 -35.15,-83.49l0 -166.54 98.46 -284.56c14.6,-40.77 37.89,-74.97 69.92,-102.69 15.59,-13.45 33.59,-23.64 54,-30.55l853.01 0c20.42,6.91 38.42,17.1 54.02,30.55 32.05,27.72 54.23,62.35 69.87,102.69 177.82,458.91 87.49,1275.14 -280.7,1495.47l-269.7 -779.1c-187.89,556.7 -144.7,1039.67 -714.79,1039.67 -142.72,0 -294.92,-16.89 -425.75,-50.62l233.37 -674.43z"/>
   <path class="fil3" d="M3583.7 4180.63c11.65,29.13 17.48,50.97 17.48,65.51 0,26.2 -9.49,48.8 -28.43,67.75 -18.94,18.94 -41.49,28.37 -67.7,28.37l-550.4 0c-49.52,0 -88.11,-10.94 -115.78,-32.76 -27.65,-21.82 -45.86,-47.3 -54.59,-76.46l-122.31 -362.55 -1161.94 0 -122.34 362.55c-8.73,29.16 -26.94,54.64 -54.58,76.46 -27.65,21.82 -66.24,32.76 -115.78,32.76l-550.4 0c-26.21,0 -48.76,-9.43 -67.7,-28.37 -18.92,-18.95 -28.43,-41.55 -28.43,-67.75 0,-14.54 5.83,-36.38 17.5,-65.51l366.66 -1059.63c130.31,33.4 271.59,50.12 423.86,50.12 1047.13,0 1366.44,-441.36 1366.44,-1442.28l848.44 2451.79z"/>
  </g>
  <rect class="fil4" x="-5.73" y="7.32" width="3606.88" height="4334.93"/>
 </g>
</svg>
